<svg width="70" height="110" viewBox="0 0 70 110" fill="none" xmlns="http://www.w3.org/2000/svg">
<path d="M49.9141 32.9922H49.022C47.2464 29.6559 46.3105 25.9162 46.3105 22.1318V16.5762C46.3105 12.0291 43.4884 8.12905 39.5039 6.53462V4.00391C39.5039 1.79615 37.7078 0 35.5 0C33.2922 0 31.4961 1.79615 31.4961 4.00391V6.53462C27.5116 8.12905 24.6895 12.029 24.6895 16.5762V22.1318C24.6895 25.9162 23.7536 29.6558 21.978 32.9922H21.0859C20.4226 32.9922 19.8848 33.53 19.8848 34.1934C19.8848 34.8567 20.4226 35.3945 21.0859 35.3945H28.8016C29.3708 38.5765 32.1567 41 35.5 41C38.8433 41 41.6291 38.5765 42.1984 35.3945H49.9141C50.5774 35.3945 51.1152 34.8567 51.1152 34.1934C51.1152 33.53 50.5774 32.9922 49.9141 32.9922ZM33.8984 4.00391C33.8984 3.1208 34.6169 2.40234 35.5 2.40234C36.3831 2.40234 37.1016 3.1208 37.1016 4.00391V5.88446C36.5788 5.80647 36.0441 5.76562 35.5 5.76562C34.9559 5.76562 34.4212 5.80647 33.8984 5.88446V4.00391ZM27.0918 16.5762C27.0918 11.9399 30.8637 8.16797 35.5 8.16797C40.1363 8.16797 43.9082 11.9399 43.9082 16.5762V22.1318C43.9082 23.9024 44.0938 25.664 44.4567 27.3867H26.5433C26.9062 25.6641 27.0918 23.9024 27.0918 22.1318V16.5762ZM25.9138 29.7891H45.0862C45.43 30.882 45.847 31.9526 46.3357 32.9922H24.6643C25.153 31.9526 25.5701 30.882 25.9138 29.7891ZM35.5 38.5977C33.4879 38.5977 31.7879 37.2409 31.2635 35.3945H39.7364C39.2121 37.2409 37.5121 38.5977 35.5 38.5977Z" fill="#01BFFF"/>
<path d="M53.5405 14.5546C53.0715 14.0855 52.3109 14.0855 51.8418 14.5546C51.3727 15.0237 51.3727 15.7842 51.8418 16.2533C52.974 17.3855 53.5976 18.8937 53.5976 20.5001C53.5976 22.1064 52.974 23.6146 51.8418 24.7468C51.3727 25.2159 51.3727 25.9764 51.8418 26.4455C52.0764 26.6801 52.3837 26.7974 52.6911 26.7974C52.9985 26.7974 53.306 26.6801 53.5404 26.4455C55.1265 24.8596 55.9999 22.7481 55.9999 20.5001C55.9999 18.252 55.1265 16.1405 53.5405 14.5546Z" fill="#01BFFF"/>
<path d="M48.4444 17.9519C47.9753 18.421 47.9753 19.1815 48.4444 19.6506C48.6712 19.8775 48.7962 20.1791 48.7962 20.5C48.7962 20.8209 48.6712 21.1225 48.4444 21.3494C47.9753 21.8185 47.9753 22.579 48.4444 23.0481C48.6789 23.2827 48.9863 23.4 49.2937 23.4C49.601 23.4 49.9085 23.2827 50.143 23.0481C51.548 21.6431 51.548 19.357 50.143 17.9519C49.674 17.4828 48.9134 17.4828 48.4444 17.9519Z" fill="#01BFFF"/>
<path d="M19.1581 14.5546C18.6891 14.0855 17.9286 14.0855 17.4594 14.5546C15.8734 16.1405 15 18.252 15 20.5C15 22.7481 15.8734 24.8596 17.4594 26.4455C17.694 26.6801 18.0014 26.7974 18.3087 26.7974C18.6161 26.7974 18.9236 26.6801 19.1581 26.4455C19.6272 25.9764 19.6272 25.2159 19.1581 24.7468C18.0259 23.6146 17.4023 22.1064 17.4023 20.5C17.4023 18.8937 18.0259 17.3855 19.1581 16.2532C19.6272 15.7842 19.6272 15.0236 19.1581 14.5546Z" fill="#01BFFF"/>
<path d="M21.7063 23.3998C22.0137 23.3998 22.3211 23.2826 22.5556 23.048C23.0247 22.5789 23.0247 21.8184 22.5556 21.3493C22.3287 21.1224 22.2037 20.8208 22.2037 20.4999C22.2037 20.179 22.3287 19.8774 22.5556 19.6505C23.0247 19.1814 23.0247 18.4209 22.5556 17.9518C22.0866 17.4827 21.326 17.4827 20.8569 17.9518C19.4518 19.3568 19.4518 21.6429 20.8569 23.048C21.0914 23.2826 21.3989 23.3998 21.7063 23.3998Z" fill="#01BFFF"/>
<circle cx="54" cy="50" r="4" stroke="#EC1B72" stroke-width="2"/>
<circle cx="17.5" cy="88.5" r="5.5" fill="#F4B740"/>
</svg>
