<svg width="70" height="110" viewBox="0 0 70 110" fill="none" xmlns="http://www.w3.org/2000/svg">
<path d="M45.9102 18.418C46.7947 18.418 47.5117 17.7009 47.5117 16.8164C47.5117 15.9319 46.7947 15.2148 45.9102 15.2148C45.0256 15.2148 44.3086 15.9319 44.3086 16.8164C44.3086 17.7009 45.0256 18.418 45.9102 18.418Z" fill="#01BFFF"/>
<path d="M49.5938 3.20312H47.5117V1.60156C47.5117 0.71702 46.7947 0 45.9102 0C45.0256 0 44.3086 0.71702 44.3086 1.60156V3.20312H37.0215V1.60156C37.0215 0.71702 36.3045 0 35.4199 0C34.5354 0 33.8184 0.71702 33.8184 1.60156V3.20312H26.6113V1.60156C26.6113 0.71702 25.8943 0 25.0098 0C24.1252 0 23.4082 0.71702 23.4082 1.60156V3.20312H21.4062C17.8738 3.20312 15 6.07697 15 9.60938V34.5938C15 38.1262 17.8738 41 21.4062 41H33.6582C34.5427 41 35.2598 40.283 35.2598 39.3984C35.2598 38.5139 34.5427 37.7969 33.6582 37.7969H21.4062C19.64 37.7969 18.2031 36.36 18.2031 34.5938V9.60938C18.2031 7.84317 19.64 6.40625 21.4062 6.40625H23.4082V8.00781C23.4082 8.89235 24.1252 9.60938 25.0098 9.60938C25.8943 9.60938 26.6113 8.89235 26.6113 8.00781V6.40625H33.8184V8.00781C33.8184 8.89235 34.5354 9.60938 35.4199 9.60938C36.3045 9.60938 37.0215 8.89235 37.0215 8.00781V6.40625H44.3086V8.00781C44.3086 8.89235 45.0256 9.60938 45.9102 9.60938C46.7947 9.60938 47.5117 8.89235 47.5117 8.00781V6.40625H49.5938C51.36 6.40625 52.7969 7.84317 52.7969 9.60938V18.7383C52.7969 19.6228 53.5139 20.3398 54.3984 20.3398C55.283 20.3398 56 19.6228 56 18.7383V9.60938C56 6.07697 53.1262 3.20312 49.5938 3.20312Z" fill="#01BFFF"/>
<path d="M46.3105 21.6211C40.9677 21.6211 36.6211 25.9677 36.6211 31.3105C36.6211 36.6534 40.9677 41 46.3105 41C51.6534 41 56 36.6534 56 31.3105C56 25.9677 51.6534 21.6211 46.3105 21.6211ZM46.3105 37.7969C42.734 37.7969 39.8242 34.8872 39.8242 31.3105C39.8242 27.7339 42.734 24.8242 46.3105 24.8242C49.8871 24.8242 52.7969 27.7339 52.7969 31.3105C52.7969 34.8872 49.8871 37.7969 46.3105 37.7969Z" fill="#01BFFF"/>
<path d="M48.6328 29.709H47.9121V28.0273C47.9121 27.1428 47.1951 26.4258 46.3105 26.4258C45.426 26.4258 44.709 27.1428 44.709 28.0273V31.3105C44.709 32.1951 45.426 32.9121 46.3105 32.9121H48.6328C49.5174 32.9121 50.2344 32.1951 50.2344 31.3105C50.2344 30.426 49.5174 29.709 48.6328 29.709Z" fill="#01BFFF"/>
<path d="M38.9434 18.418C39.8279 18.418 40.5449 17.7009 40.5449 16.8164C40.5449 15.9319 39.8279 15.2148 38.9434 15.2148C38.0588 15.2148 37.3418 15.9319 37.3418 16.8164C37.3418 17.7009 38.0588 18.418 38.9434 18.418Z" fill="#01BFFF"/>
<path d="M31.9766 25.3848C32.8611 25.3848 33.5781 24.6677 33.5781 23.7832C33.5781 22.8987 32.8611 22.1816 31.9766 22.1816C31.092 22.1816 30.375 22.8987 30.375 23.7832C30.375 24.6677 31.092 25.3848 31.9766 25.3848Z" fill="#01BFFF"/>
<path d="M25.0098 18.418C25.8943 18.418 26.6113 17.7009 26.6113 16.8164C26.6113 15.9319 25.8943 15.2148 25.0098 15.2148C24.1252 15.2148 23.4082 15.9319 23.4082 16.8164C23.4082 17.7009 24.1252 18.418 25.0098 18.418Z" fill="#01BFFF"/>
<path d="M25.0098 25.3848C25.8943 25.3848 26.6113 24.6677 26.6113 23.7832C26.6113 22.8987 25.8943 22.1816 25.0098 22.1816C24.1252 22.1816 23.4082 22.8987 23.4082 23.7832C23.4082 24.6677 24.1252 25.3848 25.0098 25.3848Z" fill="#01BFFF"/>
<path d="M25.0098 32.3516C25.8943 32.3516 26.6113 31.6345 26.6113 30.75C26.6113 29.8655 25.8943 29.1484 25.0098 29.1484C24.1252 29.1484 23.4082 29.8655 23.4082 30.75C23.4082 31.6345 24.1252 32.3516 25.0098 32.3516Z" fill="#01BFFF"/>
<path d="M31.9766 32.3516C32.8611 32.3516 33.5781 31.6345 33.5781 30.75C33.5781 29.8655 32.8611 29.1484 31.9766 29.1484C31.092 29.1484 30.375 29.8655 30.375 30.75C30.375 31.6345 31.092 32.3516 31.9766 32.3516Z" fill="#01BFFF"/>
<path d="M31.9766 18.418C32.8611 18.418 33.5781 17.7009 33.5781 16.8164C33.5781 15.9319 32.8611 15.2148 31.9766 15.2148C31.092 15.2148 30.375 15.9319 30.375 16.8164C30.375 17.7009 31.092 18.418 31.9766 18.418Z" fill="#01BFFF"/>
<circle cx="53" cy="81" r="4" stroke="#F4B740" stroke-width="2"/>
<circle cx="18" cy="60" r="4" stroke="#00BA88" stroke-width="2"/>
</svg>
