<svg width="70" height="110" viewBox="0 0 70 110" fill="none" xmlns="http://www.w3.org/2000/svg">
<g clip-path="url(#clip0)">
<path d="M52.3164 7.0464H43.0227C44.2412 5.29878 44.0727 2.87089 42.5147 1.31297C40.7663 -0.43554 37.9213 -0.43554 36.1729 1.31297C35.9766 1.50924 35.7422 1.79344 35.5001 2.27414C35.2578 1.79344 35.0235 1.50924 34.8273 1.31297C33.0788 -0.43554 30.2339 -0.43554 28.4855 1.31297C26.9276 2.87089 26.7591 5.29869 27.9775 7.0464H18.6836C16.6525 7.0464 15 8.69889 15 10.73V13.6128C15 15.2531 16.0779 16.6459 17.5625 17.1213V37.3159C17.5625 39.347 19.215 40.9995 21.2461 40.9995H32.9375H38.0625H49.7539C51.785 40.9995 53.4375 39.347 53.4375 37.3159V17.1213C54.9221 16.6458 56 15.253 56 13.6128V10.73C56 8.69889 54.3475 7.0464 52.3164 7.0464ZM36.7812 14.7339H34.2188V9.6089H36.7812V14.7339ZM37.0827 5.96182C37.4784 3.6856 37.9341 3.17558 37.9848 3.12489C38.3595 2.75021 38.8517 2.56291 39.3438 2.56291C39.836 2.56291 40.3281 2.75021 40.7028 3.12489C41.4521 3.87427 41.4521 5.09345 40.7028 5.84283C40.6525 5.8932 40.1455 6.34636 37.8865 6.74138C37.5577 6.79888 37.2368 6.84701 36.9408 6.8868C36.9797 6.59756 37.0266 6.28406 37.0827 5.96182ZM30.2972 3.12489C30.6719 2.75021 31.1641 2.56291 31.6562 2.56291C32.1484 2.56291 32.6406 2.75021 33.0153 3.12489C33.0656 3.17526 33.5188 3.68224 33.9138 5.94116C33.9713 6.26996 34.0194 6.59092 34.0592 6.88696C33.77 6.84797 33.4564 6.80104 33.1343 6.74499C30.858 6.34924 30.348 5.89352 30.2973 5.84283C29.548 5.09353 29.548 3.87427 30.2972 3.12489ZM17.5625 10.73C17.5625 10.1118 18.0654 9.6089 18.6836 9.6089H31.6562V14.7339H18.8438H18.6836C18.0654 14.7339 17.5625 14.231 17.5625 13.6128V10.73ZM20.125 37.3159V17.2964H31.6562V38.437H21.2461C20.6279 38.437 20.125 37.9341 20.125 37.3159ZM34.2188 38.437V17.2964H36.7812V38.437H34.2188ZM50.875 37.3159C50.875 37.9341 50.3721 38.437 49.7539 38.437H39.3438V17.2964H50.875V37.3159ZM53.4375 13.6128C53.4375 14.231 52.9346 14.7339 52.3164 14.7339H52.1562H39.3438V9.6089H52.3164C52.9346 9.6089 53.4375 10.1118 53.4375 10.73V13.6128Z" fill="#01BFFF"/>
</g>
<circle cx="60.5" cy="60.5" r="5.5" fill="#00BA88"/>
<circle cx="20" cy="82" r="4" stroke="#EC1B72" stroke-width="2"/>
<defs>
<clipPath id="clip0">
<rect width="41" height="41" fill="white" transform="translate(15)"/>
</clipPath>
</defs>
</svg>
